<svg role="img" viewBox="0 0 48 48" xmlns="http://www.w3.org/2000/svg" id="Bluesky--Streamline-Simple-Icons.svg" height="48" width="48"><desc>Bluesky Streamline Icon: https://streamlinehq.com</desc><title>Bluesky</title><path d="M24 21.6c-2.174 -4.228 -8.092 -12.106 -13.596 -15.99C5.132 1.888 3.122 2.532 1.804 3.13 0.278 3.816 0 6.16 0 7.536c0 1.38 0.756 11.3 1.248 12.958 1.63 5.472 7.426 7.32 12.766 6.728 0.272 -0.04 0.55 -0.078 0.83 -0.112 -0.276 0.044 -0.552 0.08 -0.83 0.112 -7.824 1.16 -14.774 4.01 -5.66 14.156 10.026 10.38 13.74 -2.226 15.646 -8.616 1.906 6.39 4.1 18.542 15.466 8.616 8.534 -8.616 2.344 -12.996 -5.48 -14.156a17.482 17.482 0 0 1 -0.83 -0.112c0.28 0.034 0.558 0.072 0.83 0.112 5.34 0.594 11.136 -1.256 12.766 -6.728 0.492 -1.656 1.248 -11.58 1.248 -12.956 0 -1.38 -0.278 -3.722 -1.804 -4.412 -1.318 -0.596 -3.328 -1.24 -8.6 2.48C32.092 9.496 26.174 17.374 24 21.6Z" fill="#000000" stroke-width="1"></path></svg>